<svg width="96" height="96" xmlns="http://www.w3.org/2000/svg" xmlns:xlink="http://www.w3.org/1999/xlink" xml:space="preserve" overflow="hidden"><g><path d="M46.4 89.042C49.494 89.042 51.1 87.279 52.54 85.267 53.657 83.706 54.378 82.814 56.186 82.648 58.413 82.448 60.522 83.659 62.964 85.064 67.012 87.4 72.054 90.3 79.254 86.9 80.2459 86.4139 80.6559 85.2158 80.1698 84.224 79.6938 83.2527 78.5319 82.8358 77.547 83.283 72.237 85.789 68.863 83.846 64.957 81.598 62.179 79.998 59.31 78.344 55.817 78.665 52.099 79.006 50.473 81.279 49.284 82.939 47.868 84.917 47.157 85.91 42.743 84.139 41.7174 83.7287 40.5533 84.2274 40.143 85.253 39.7327 86.2786 40.2314 87.4426 41.257 87.853 42.881 88.57 44.626 88.9735 46.4 89.042Z"/><path d="M70.1 63.96C72.347 67.596 77.142 75.845 79.13 83.019 79.139 83.0549 79.1173 83.0913 79.0814 83.1003 79.055 83.107 79.0271 83.097 79.011 83.075 77.2376 80.9485 75.2059 79.0516 72.963 77.428L72.963 77.428C72.934 77.345 71.222 72.467 66.15 64.755 66.1403 64.74 66.1226 64.7321 66.105 64.735 64.2848 64.8954 62.4515 64.6628 60.729 64.053 53.712 62.105 48.629 55.436 48.129 54.753 48.109 54.726 48.129 54.696 48.165 54.696 50.8747 54.6652 53.5437 54.0326 55.979 52.844 56.0811 52.8017 56.1295 52.6847 56.0873 52.5827 56.0501 52.4929 55.9538 52.4429 55.859 52.464L55.853 52.464C50.4995 53.3125 45.0935 51.2881 41.614 47.132 39.4528 44.5337 37.0779 42.1209 34.514 39.919 31.297 37.156 27.226 34.413 23.464 31.577 23.2682 31.4212 23.2358 31.1363 23.3915 30.9405 23.4597 30.8549 23.5564 30.7968 23.664 30.777 26.139 30.3147 28.4916 29.3454 30.574 27.93 30.6228 27.8971 30.6546 27.8445 30.661 27.786 30.6745 27.6764 30.5965 27.5766 30.4869 27.5631 30.4583 27.5596 30.4294 27.5623 30.402 27.571 27.2607 28.5307 23.9192 28.6288 20.727 27.855 18.8478 27.391 17.1624 26.347 15.91 24.871 12.579 20.98 11.21 16.797 14.249 12.085 16.32 8.872 20.94 7.485 26.927 8.176 30.4309 8.54776 33.43 10.854 34.689 14.145 35.1193 15.2984 35.4312 16.4925 35.62 17.709 35.62 17.8195 35.7095 17.909 35.82 17.909 35.9305 17.909 36.02 17.8195 36.02 17.709 36.05 17.509 36.075 17.309 36.098 17.109 36.3204 15.1216 36.2146 13.1111 35.785 11.158 35.7261 10.9205 35.8709 10.6803 36.1083 10.6214 36.1947 10.6 36.2856 10.6051 36.369 10.636 41.0603 12.5167 45.4954 14.9822 49.569 17.974 54.2866 21.3694 58.6131 25.2776 62.469 29.627 64.9441 32.4072 66.2672 36.0259 66.169 39.747 66.1071 41.3077 65.8436 42.8539 65.385 44.347 65.3473 44.4508 65.4008 44.5656 65.5046 44.6033 65.5943 44.6359 65.6945 44.6006 65.744 44.519 67.0235 42.6348 67.9392 40.5279 68.444 38.307L68.526 38.294C70.912 42.872 73.497 50.042 73.903 54.794 74.16 57.806 73.315 60.508 71.765 61.98 71.7481 61.9975 71.7203 61.998 71.7028 61.9811 71.6997 61.9781 71.6971 61.9747 71.695 61.971 67.952 55.356 60.367 44.1 54.966 38.686 50.8489 34.4609 46.254 30.7295 41.274 27.567 40.5726 27.1248 39.8102 26.7879 39.011 26.567 38.9066 26.5311 38.7927 26.5866 38.7568 26.691 38.7262 26.7799 38.7617 26.8782 38.842 26.927 42.9384 29.7757 46.7729 32.9838 50.3 36.513 56.532 42.753 65.232 54.768 69.422 62.746 69.636 63.162 69.858 63.561 70.1 63.96Z"/></g></svg>