<svg width="96" height="96" xmlns="http://www.w3.org/2000/svg" xmlns:xlink="http://www.w3.org/1999/xlink" xml:space="preserve" overflow="hidden"><g><path d="M60 36 66 36C79 36 87 42 90 47 90 48.1046 90.8954 49 92 49 93.1046 49 94 48.1046 94 47L94 19C94 17.8954 93.1046 17 92 17 90.8954 17 90 17.8954 90 19 87 24 79 30 66 30L60 30 60 29C60 28.4477 59.5523 28 59 28L55 28C54.4477 28 54 28.4477 54 29L54 30 30 30 30 29C30 28.4477 29.5523 28 29 28L25 28C24.4477 28 24 28.4477 24 29L24 30 6 30C6 28.8954 5.10457 28 4 28 2.89543 28 2 28.8954 2 30L2 36C2 37.1046 2.89543 38 4 38 5.10457 38 6 37.1046 6 36L24 36 24 77.607C24.0003 78.1593 24.4483 78.6068 25.0006 78.6064 25.1842 78.6063 25.3643 78.5557 25.521 78.46L42 68.39 58.479 78.46C58.9504 78.7477 59.5658 78.5988 59.8536 78.1274 59.9492 77.9707 59.9999 77.7906 60 77.607ZM55 70.475 42 62.53 29 70.475 29 43 31 43 31 66.908 42 60.186 53 66.908 53 43 55 43ZM54 40 30 40 30 36 54 36Z"/></g></svg>