<svg width="96" height="96" xmlns="http://www.w3.org/2000/svg" xmlns:xlink="http://www.w3.org/1999/xlink" xml:space="preserve" overflow="hidden"><g><path d="M17 63 79 63 79 77 17 77Z"/><path d="M86.551 31.48C85.06 31.7137 83.5959 32.0945 82.18 32.617 80.2297 33.4601 78.466 34.6817 76.991 36.211 76.0692 37.1117 74.8786 37.6869 73.6 37.849L69.186 38.449C68.9124 38.4862 68.6604 38.2945 68.6232 38.0209 68.6119 37.9375 68.6218 37.8526 68.652 37.774L69.378 35.885C69.4631 35.6632 69.5939 35.4618 69.762 35.294L74.33 30.725C74.9911 30.0616 74.9911 28.9884 74.33 28.325L69.488 23.482C68.8246 22.8209 67.7514 22.8209 67.088 23.482L62.246 28.325C61.5849 28.9884 61.5849 30.0616 62.246 30.725L62.346 30.825C62.8158 31.2951 62.9686 31.996 62.737 32.619L60.443 38.74C60.2236 39.3256 59.7005 39.7434 59.081 39.828L58.181 39.95C57.9653 39.9793 57.7554 39.8657 57.662 39.669L53.96 31.828C53.6548 31.178 53.7908 30.4064 54.3 29.9L58.132 26.067C58.7931 25.4036 58.7931 24.3304 58.132 23.667L49.2 14.744C48.5366 14.0829 47.4634 14.0829 46.8 14.744L37.875 23.669C37.2139 24.3324 37.2139 25.4056 37.875 26.069L41.729 29.924C42.2351 30.431 42.3691 31.2008 42.064 31.849L38.369 39.668C38.2755 39.8651 38.0651 39.9788 37.849 39.949L36.949 39.827C36.3298 39.7421 35.8072 39.3243 35.588 38.739L33.302 32.617C33.0702 31.9942 33.2225 31.2934 33.692 30.823L33.792 30.723C34.4531 30.0596 34.4531 28.9864 33.792 28.323L28.958 23.489C28.2946 22.8279 27.2214 22.8279 26.558 23.489L21.724 28.323C21.0629 28.9864 21.0629 30.0596 21.724 30.723L26.263 35.263C26.4317 35.4305 26.563 35.632 26.648 35.854L27.384 37.772C27.4832 38.0297 27.3546 38.319 27.0969 38.4182 27.0183 38.4484 26.9334 38.4583 26.85 38.447L22.4 37.843C21.1185 37.6827 19.9245 37.1078 19 36.206 17.5259 34.6792 15.764 33.4594 13.816 32.617 12.4014 32.0948 10.9386 31.7139 9.449 31.48 8.90413 31.3898 8.38932 31.7584 8.29916 32.3033 8.24598 32.6247 8.35263 32.9518 8.585 33.18 11.5011 35.8737 13.705 39.2474 15 43 16.2304 47.1101 16.9031 51.3668 17 55.656L17 57.3C17 58.2389 17.7611 59 18.7 59L77.3 59C78.2389 59 79 58.2389 79 57.3L79 55.656C79.0969 51.3668 79.7696 47.1101 81 43 82.2953 39.2481 84.4992 35.8751 87.415 33.182 87.8103 32.7964 87.8182 32.1632 87.4325 31.7679 87.2036 31.5332 86.8743 31.4257 86.551 31.48ZM27.761 31.812 25.477 29.527 27.761 27.243 30.045 29.527ZM48 29.124 43.748 24.87 48 20.615 52.254 24.87ZM65.989 29.524 68.282 27.231 70.576 29.524 68.284 31.82Z"/></g></svg>