<svg width="96" height="96" xmlns="http://www.w3.org/2000/svg" xmlns:xlink="http://www.w3.org/1999/xlink" xml:space="preserve" overflow="hidden"><g><path d="M80.042 81.956 80.042 65.965C79.9905 63.4594 78.8156 61.1096 76.842 59.565 72.442 55.965 66.848 53.565 61.251 51.965 56.9751 50.6555 52.5299 49.9816 48.058 49.965 43.591 50.0421 39.1542 50.7147 34.865 51.965 29.275 53.5969 24.003 56.1668 19.274 59.565 17.3003 61.1095 16.1254 63.4594 16.074 65.965L16.074 81.956Z"/><path d="M33.236 24C29.9227 32.1865 33.8733 41.5089 42.0598 44.8222 50.2463 48.1355 59.5687 44.185 62.882 35.9985 64.4393 32.1506 64.4393 27.8479 62.882 24Z"/><path d="M31.36 22.001 30.412 3 39.195 9.388 47.979 3 56.762 9.388 65.546 3 64.598 22.001 31.36 22.001Z"/></g></svg>