<svg width="96" height="96" xmlns="http://www.w3.org/2000/svg" xmlns:xlink="http://www.w3.org/1999/xlink" xml:space="preserve" overflow="hidden"><g><path d="M87 30.25 85.264 30.25 82.358 27.925C81.7366 27.4342 81.0422 27.0438 80.3 26.768 80.3131 23.9604 78.9579 21.3225 76.668 19.698 75.4265 18.8013 73.9748 18.2399 72.453 18.068 72.2282 18.0476 72.0166 18.1768 71.932 18.386 71.8503 18.5977 71.9213 18.8378 72.105 18.971 74.28 20.542 76.237 23.571 76.223 26.25L74.563 26.25C73.246 22.9994 70.07 20.8893 66.563 20.935 65.0316 20.9341 63.526 21.3289 62.192 22.081 61.9512 22.2162 61.8656 22.521 62.0008 22.7618 62.0895 22.9198 62.2568 23.0175 62.438 23.017 65.2184 23.0357 67.8667 24.2063 69.752 26.25L65.5 26.25C64.2574 26.25 63.25 27.2574 63.25 28.5 63.25 29.7426 64.2574 30.75 65.5 30.75L65.571 30.75 66.58 32.466C66.9927 33.1791 67.0843 34.0336 66.832 34.818 65.6312 39.5292 65.3965 44.4347 66.142 49.239 66.208 49.739 66.283 50.239 66.363 50.728 66.5641 51.9264 66.2495 53.1539 65.497 54.108 64.8533 54.9272 63.9219 55.4707 62.892 55.628 60.573 50.622 57.326 40.708 57.004 34.962L56.971 34.43C56.6617 28.5897 57.7051 22.7569 60.02 17.386 60.1224 17.1355 60.0819 16.8493 59.914 16.637 54.852 10.225 43.77 7.7 32.339 10.351 20.667 13.059 11.539 20.406 9.625 28.633 9.51881 29.0874 9.80111 29.5419 10.2556 29.6481 10.468 29.6978 10.6914 29.6633 10.879 29.552 12.9357 28.3381 15.1668 27.4474 17.494 26.911 21.6 25.96 24.144 25.457 27.194 26.368 21.5825 29.9628 18.0819 36.073 17.819 42.732 17.8007 43.0731 17.9931 43.3905 18.304 43.532 18.6158 43.6527 18.9691 43.5864 19.216 43.361 20.8845 41.6981 22.8022 40.3057 24.9 39.234 27.525 38.069 28.779 37.773 31.161 38.057 26.7209 42.0573 25.0884 48.3167 27.009 53.976 27.1139 54.2989 27.4035 54.5264 27.742 54.552 28.0758 54.5571 28.3861 54.3811 28.553 54.092 29.9191 51.7363 31.8263 49.7396 34.117 48.267 34.6545 47.9081 35.2235 47.5988 35.817 47.343 37.9619 46.4946 40.3897 47.5348 41.255 49.673 41.6152 50.4898 41.5612 51.4298 41.11 52.2 33.6988 51.4434 27.0774 56.838 26.3208 64.2493 26.2743 64.7044 26.251 65.1615 26.251 65.619L26.251 67.064C26.316 70.5672 24.1233 73.7159 20.815 74.87 18.7054 75.6046 16.3704 75.269 14.553 73.97 12.797 72.6967 11.7562 70.6601 11.753 68.491L11.753 59.375 14.864 57.042C15.48 56.5838 15.7236 55.7765 15.464 55.054L11.344 43.53C11.0784 42.788 10.2615 42.4018 9.51953 42.6675 9.11743 42.8114 8.80095 43.1279 8.657 43.53L4.542 55.054C4.28304 55.7765 4.52657 56.5834 5.142 57.042L8.236 59.362 7.8 69.345C7.49293 76.4347 12.9913 82.4309 20.081 82.738 20.2659 82.746 20.4509 82.75 20.636 82.75L22.647 82.75C29.302 82.75 34.617 77.286 34.747 70.312 34.7929 67.7691 36.8915 65.7449 39.4343 65.7908 39.7335 65.7962 40.0315 65.8308 40.324 65.894L39.024 75.604C38.9743 75.9793 38.9957 76.3606 39.087 76.728L41.087 84.728C41.4213 86.0643 42.6226 87.0012 44 87L51 87C52.6569 87 54 85.6569 54 84 54 82.3431 52.6569 81 51 81L46.343 81 45.12 76.106C46.6145 75.151 47.8661 73.8613 48.776 72.339 49.575 70.7757 50.1795 69.1203 50.576 67.41 50.6887 66.8693 51.2184 66.5224 51.759 66.6351 52.2997 66.7478 52.6466 67.2775 52.5339 67.8181 52.5312 67.8312 52.5282 67.8441 52.525 67.857 52.2741 68.9185 51.95 69.9613 51.555 70.978L54.677 72.428C58.2551 74.081 62.0803 75.1353 66 75.549L66 84C66 85.6569 67.3431 87 69 87L76 87C77.6569 87 79 85.6569 79 84 79 82.3431 77.6569 81 76 81L72 81 72 75.691C74.2254 75.464 76.305 74.4785 77.89 72.9 79.7286 71.0809 80.7594 68.5994 80.751 66.013 80.7549 60.6247 79.7267 55.2855 77.722 50.284L77.1 48.724C76.8733 48.1581 76.7556 47.5546 76.753 46.945 76.7505 46.6259 76.8758 46.3191 77.101 46.093 77.3183 45.873 77.6148 45.7495 77.924 45.75L85.587 45.75C87.3348 45.7483 88.7513 44.3318 88.753 42.584L88.753 42C88.753 41.5858 88.4172 41.25 88.003 41.25L79.793 41.25C80.0875 39.242 81.8085 37.7528 83.838 37.75L91 37.75C91.4142 37.75 91.75 37.4142 91.75 37L91.75 35C91.7467 32.378 89.622 30.2533 87 30.25ZM77.76 33.9C76.4678 32.8633 76.2605 30.9754 77.297 29.683L81.978 33.436C80.9418 34.7289 79.0537 34.9369 77.7609 33.9007 77.7606 33.9005 77.7603 33.9002 77.76 33.9Z"/></g></svg>