<svg width="96" height="96" xmlns="http://www.w3.org/2000/svg" xmlns:xlink="http://www.w3.org/1999/xlink" xml:space="preserve" overflow="hidden"><g><path d="M73.212 82.55C80.465 76.8 85.006 68.6 85.006 59.5 84.9624 52.9697 82.6553 46.6566 78.478 41.637 77.6833 40.6563 77.2235 39.4469 77.166 38.186 80.853 36.444 83.006 34.353 83.006 32.103 83.006 27.647 77.616 23.813 64.883 22.084 65.2004 24.1004 64.901 26.1657 64.024 28.009 70.275 28.847 73.614 30.103 75.339 31.05 75.7247 31.2655 75.8626 31.7529 75.6471 32.1386 75.5713 32.2743 75.4576 32.3849 75.32 32.457 71.332 34.534 61.886 37.1 48.006 37.1 34.126 37.1 24.68 34.534 20.692 32.457 20.3006 32.252 20.1496 31.7685 20.3546 31.3771 20.4267 31.2395 20.5374 31.1258 20.673 31.05 23.315 29.599 29.735 27.424 44.63 27.136 43.9269 25.2156 43.8151 23.1286 44.309 21.144 22.022 21.612 13.009 26.338 13.009 32.103 13.009 34.353 15.162 36.444 18.849 38.186 18.7915 39.4469 18.3317 40.6563 17.537 41.637 13.3586 46.6562 11.0504 52.9693 11.006 59.5 11.006 68.6 15.547 76.8 22.799 82.55L21.178 84.172C19.589 85.7067 19.545 88.239 21.0797 89.828 22.6144 91.417 25.1467 91.461 26.7357 89.9263 26.769 89.8941 26.8018 89.8613 26.834 89.828L29.762 86.9C41.3107 92.3653 54.7013 92.3653 66.25 86.9L69.178 89.827C70.767 91.3617 73.2993 91.3177 74.834 89.7287 76.3311 88.1786 76.3311 85.7211 74.834 84.171Z"/><path d="M61.006 23.603C61.006 27.1929 58.0959 30.103 54.506 30.103 50.9161 30.103 48.006 27.1929 48.006 23.603 48.006 20.0131 50.9161 17.103 54.506 17.103 58.0959 17.103 61.006 20.0131 61.006 23.603Z"/><path d="M74.006 14.603C74.006 17.0883 71.9913 19.103 69.506 19.103 67.0207 19.103 65.006 17.0883 65.006 14.603 65.006 12.1177 67.0207 10.103 69.506 10.103 71.9913 10.103 74.006 12.1177 74.006 14.603Z"/><path d="M61.006 7.603C61.006 9.536 59.439 11.103 57.506 11.103 55.573 11.103 54.006 9.536 54.006 7.603 54.006 5.67 55.573 4.103 57.506 4.103 59.439 4.103 61.006 5.67 61.006 7.603Z"/></g></svg>