<svg width="96" height="96" xmlns="http://www.w3.org/2000/svg" xmlns:xlink="http://www.w3.org/1999/xlink" xml:space="preserve" overflow="hidden"><g><path d="M41.98 23.377 40.567 13.545C40.4976 13.1058 40.62 12.6579 40.903 12.315 42.9288 9.94015 42.6459 6.3727 40.271 4.34689 37.8962 2.32107 34.3287 2.60402 32.3029 4.97887 30.2771 7.35372 30.56 10.9212 32.9349 12.947 33.1142 13.1 33.303 13.2416 33.5 13.371 33.8719 13.6214 34.1189 14.0188 34.179 14.463L35.588 24.3Z"/><path d="M26.634 35.779C27.4625 35.6602 28.2324 35.2829 28.834 34.701 29.2599 34.3071 29.8686 34.1809 30.416 34.373L34.8 35.829 37.853 57.074 48.723 53.252 45.986 34.221 49.78 31.59C50.2475 31.2531 50.8626 31.2012 51.38 31.455 53.3496 32.4844 55.7808 31.7221 56.8102 29.7525 57.0668 29.2615 57.2193 28.7227 57.258 28.17 57.4199 25.9469 55.7489 24.0134 53.5258 23.8515 52.3022 23.7624 51.1045 24.2347 50.271 25.135 50.0334 25.3801 49.7189 25.5361 49.38 25.577L29.1 28.491C28.7553 28.5461 28.4021 28.4808 28.1 28.306 26.1793 27.1738 23.7044 27.813 22.5722 29.7337 21.44 31.6544 22.0792 34.1293 23.9999 35.2615 24.7918 35.7283 25.7193 35.9108 26.629 35.779Z"/><path d="M80.022 82.574 78.022 70.986 66.129 68.269 57.843 73.59 46.772 75.151 55.924 71.512 63.459 65.833 57.022 54.574 27.022 65.121 22.022 75.574 13.022 81.574 10.328 92.574 87 92.574 80.022 82.574Z"/></g></svg>