<svg width="96" height="96" xmlns="http://www.w3.org/2000/svg" xmlns:xlink="http://www.w3.org/1999/xlink" xml:space="preserve" overflow="hidden"><g><path d="M49 65C49 66.1046 48.1046 67 47 67 45.8954 67 45 66.1046 45 65 45 63.8954 45.8954 63 47 63 48.1046 63 49 63.8954 49 65Z" fill="#FFFFFF"/><path d="M57 65C57 66.1046 56.1046 67 55 67 53.8954 67 53 66.1046 53 65 53 63.8954 53.8954 63 55 63 56.1046 63 57 63.8954 57 65Z" fill="#FFFFFF"/><path d="M49 73C49 74.1046 48.1046 75 47 75 45.8954 75 45 74.1046 45 73 45 71.8954 45.8954 71 47 71 48.1046 71 49 71.8954 49 73Z" fill="#FFFFFF"/><path d="M57 73C57 74.1046 56.1046 75 55 75 53.8954 75 53 74.1046 53 73 53 71.8954 53.8954 71 55 71 56.1046 71 57 71.8954 57 73Z" fill="#FFFFFF"/><path d="M76.3 57.5C72.6 54.4 68.2 52.6 63.6 50.9L58.7 48.9C58.3 48.7 58.1 48.4 58.1 48L58.1 45.6C61.9 42.6 64.1 38 64.1 33.1L64.1 27.1 64.1 27.1 64.1 24.1C68.5 20.8 69.4 14.5 66.1 10.1 63.8 7 60 5.6 56.2 6.3 53 1.8 46.8 0.8 42.3 4 41.4 4.6 40.6 5.4 40 6.3 34.6 5.3 29.3 8.8 28.3 14.2 27.5 17.9 29 21.7 32 24L32 30 32 30 32 33C32 37.8 34.2 42.4 38 45.5L38 48C38 48.4 37.8 48.8 37.4 48.9L32.5 50.9C27.9 52.5 23.5 54.4 19.8 57.5 17.4 59.3 16.1 62 16 65L16 82.6 16.9 83.2C21.8 86.5 35.1 88.1 48.3 88.1 61.6 88.1 74.8 86.4 79.2 83.1L80 82.5 80 65C79.9 62 78.6 59.3 76.3 57.5ZM38 10C39.5 10 40.9 10.6 42 11.6 42.2 8.3 45.1 5.8 48.4 6.1 51.4 6.3 53.7 8.7 53.9 11.6 56.4 9.4 60.1 9.6 62.4 12 64.6 14.5 64.4 18.2 62 20.5 61.4 21 60.7 21.4 60 21.7L60 26 36 26 36 21.7C32.9 20.6 31.3 17.2 32.4 14 33.2 11.6 35.5 10 38 10ZM36 33 36 30 60 30 60 33C60 39.6 54.6 45 48 45 41.4 45 36 39.6 36 33ZM48 49C50.1 49 52.1 48.6 54 47.8L54 47.9C54 49.4 54.7 50.9 55.9 51.9 53.4 52.7 50.7 53 48 53 45.3 53 42.6 52.6 40 51.9 41.2 51 41.9 49.5 41.9 47.9L41.9 47.8C43.9 48.6 45.9 49 48 49ZM20 65C20 63.2 20.9 61.6 22.3 60.5 25.6 57.8 29.6 56.1 33.8 54.6L33.8 54.6 33.9 54.5C34.4 54.3 34.8 54.2 35.3 54 35.5 54.1 35.8 54.3 36 54.4L36 83.4C29.1 82.8 23.1 81.8 20 80.2L20 65ZM76 80.4C70.5 83.4 54 84.5 40 83.8L40 56C42.6 56.7 45.3 57 48 57 53.1 57 57.7 55.9 60.7 54.1 61.2 54.3 61.6 54.4 62.1 54.6L62.3 54.7 62.3 54.7C66.5 56.2 70.5 57.9 73.8 60.6 75.2 61.7 76 63.3 76 65L76 80.4Z" fill="#FFFFFF"/></g></svg>